<svg width="20" height="20" viewBox="0 0 20 20" fill="none" xmlns="http://www.w3.org/2000/svg">
<rect opacity="0.12" x="1.66663" y="1.66669" width="16.6667" height="16.6667" rx="4.16667" fill="white"/>
<path fill-rule="evenodd" clip-rule="evenodd" d="M8.30533 1.04169L8.33329 1.04169H11.6666L11.6946 1.04169C12.8377 1.04168 13.7339 1.04168 14.4542 1.10053C15.1876 1.16046 15.7936 1.2845 16.342 1.56395C17.2436 2.02334 17.9766 2.75637 18.436 3.65798C18.7155 4.20642 18.8395 4.81235 18.8994 5.5458C18.9583 6.26607 18.9583 7.16223 18.9583 8.30527V8.30532V8.30537V8.33335V11.6667V11.6947V11.6947V11.6948C18.9583 12.8378 18.9583 13.734 18.8994 14.4542C18.8395 15.1877 18.7155 15.7936 18.436 16.3421C17.9766 17.2437 17.2436 17.9767 16.342 18.4361C15.7936 18.7155 15.1876 18.8396 14.4542 18.8995C13.7339 18.9584 12.8378 18.9584 11.6947 18.9584H11.6947H11.6946H11.6666H8.33329H8.30531H8.30526H8.30521C7.16217 18.9584 6.26601 18.9584 5.54574 18.8995C4.81229 18.8396 4.20636 18.7155 3.65792 18.4361C2.75631 17.9767 2.02328 17.2437 1.56389 16.3421C1.28444 15.7936 1.16039 15.1877 1.10047 14.4542C1.04162 13.7339 1.04162 12.8378 1.04163 11.6947L1.04163 11.6667V8.33335L1.04163 8.30539C1.04162 7.16229 1.04162 6.26609 1.10047 5.5458C1.16039 4.81235 1.28444 4.20642 1.56389 3.65798C2.02328 2.75637 2.75631 2.02334 3.65792 1.56395C4.20636 1.2845 4.81229 1.16046 5.54574 1.10053C6.26603 1.04168 7.16223 1.04168 8.30533 1.04169ZM5.64753 2.34638C4.99138 2.39999 4.56827 2.50301 4.22541 2.67771C3.559 3.01726 3.0172 3.55906 2.67764 4.22547C2.50295 4.56833 2.39993 4.99144 2.34632 5.64759C2.29211 6.31104 2.29163 7.15627 2.29163 8.33335V11.6667C2.29163 12.8438 2.29211 13.689 2.34632 14.3525C2.39993 15.0086 2.50295 15.4317 2.67764 15.7746C3.0172 16.441 3.559 16.9828 4.22541 17.3223C4.56827 17.497 4.99138 17.6001 5.64753 17.6537C6.31098 17.7079 7.1562 17.7084 8.33329 17.7084H11.6666C12.8437 17.7084 13.6889 17.7079 14.3524 17.6537C15.0085 17.6001 15.4317 17.497 15.7745 17.3223C16.4409 16.9828 16.9827 16.441 17.3223 15.7746C17.497 15.4317 17.6 15.0086 17.6536 14.3525C17.7078 13.689 17.7083 12.8438 17.7083 11.6667V8.33335C17.7083 7.15626 17.7078 6.31104 17.6536 5.64759C17.6 4.99144 17.497 4.56833 17.3223 4.22547C16.9827 3.55906 16.4409 3.01726 15.7745 2.67771C15.4317 2.50301 15.0085 2.39999 14.3524 2.34638C13.6889 2.29217 12.8437 2.29169 11.6666 2.29169H8.33329C7.1562 2.29169 6.31097 2.29217 5.64753 2.34638ZM7.52523 4.55807C7.76931 4.80215 7.76932 5.19788 7.52524 5.44196L6.50881 6.45841H11.6666C12.0118 6.45841 12.2916 6.73823 12.2916 7.08341C12.2916 7.42859 12.0118 7.70841 11.6666 7.70841H6.50884L7.52523 8.7248C7.76931 8.96888 7.76931 9.36461 7.52523 9.60869C7.28116 9.85277 6.88543 9.85277 6.64135 9.60869L4.55802 7.52535C4.31394 7.28128 4.31394 6.88556 4.55801 6.64148L6.64134 4.55808C6.88542 4.314 7.28115 4.314 7.52523 4.55807ZM12.4747 11.2753C12.2306 11.0312 12.2306 10.6355 12.4747 10.3914C12.7188 10.1473 13.1145 10.1473 13.3586 10.3914L15.4419 12.4747C15.686 12.7188 15.686 13.1146 15.4419 13.3586L13.3586 15.442C13.1145 15.686 12.7188 15.686 12.4747 15.442C12.2306 15.1979 12.2306 14.8022 12.4747 14.5581L13.4911 13.5417H8.33329C7.98811 13.5417 7.70829 13.2619 7.70829 12.9167C7.70829 12.5715 7.98811 12.2917 8.33329 12.2917H13.4911L12.4747 11.2753Z" fill="white"/>
</svg>
