<svg width="20" height="20" viewBox="0 0 20 20" fill="none" xmlns="http://www.w3.org/2000/svg">
<rect opacity="0.12" x="1.66669" y="1.66669" width="16.6667" height="16.6667" rx="5" fill="none"/>
<path fill-rule="evenodd" clip-rule="evenodd" d="M9.66669 1.04169L9.6384 1.04169C8.2622 1.04168 7.19104 1.04168 6.3318 1.11188C5.45939 1.18316 4.75056 1.32992 4.11299 1.65478C3.05458 2.19406 2.19406 3.05458 1.65477 4.11299C1.32992 4.75056 1.18316 5.45939 1.11188 6.3318C1.04168 7.19104 1.04168 8.26221 1.04169 9.63841L1.04169 9.66669L1.04169 10.3334L1.04169 10.3616C1.04168 11.7378 1.04168 12.809 1.11188 13.6682C1.18316 14.5407 1.32992 15.2495 1.65478 15.8871C2.19406 16.9455 3.05458 17.806 4.11299 18.3453C4.75056 18.6701 5.45939 18.8169 6.3318 18.8882C7.19104 18.9584 8.2622 18.9584 9.63839 18.9584H9.66669H10.3334H10.3617H10.3617H10.3617H10.3617C11.7379 18.9584 12.809 18.9584 13.6682 18.8882C14.5407 18.8169 15.2495 18.6701 15.8871 18.3453C16.9455 17.806 17.806 16.9455 18.3453 15.887C18.6701 15.2495 18.8169 14.5406 18.8882 13.6682C18.9584 12.809 18.9584 11.7378 18.9584 10.3616V10.3333V9.66668V9.63838C18.9584 8.26219 18.9584 7.19103 18.8882 6.3318C18.8169 5.45939 18.6701 4.75056 18.3453 4.11299C17.806 3.05458 16.9455 2.19406 15.887 1.65477C15.2495 1.32992 14.5406 1.18316 13.6682 1.11188C12.809 1.04168 11.7378 1.04168 10.3616 1.04169L10.3333 1.04169L9.66669 1.04169ZM4.68048 2.76853C5.11246 2.54843 5.63848 2.4227 6.43359 2.35773C7.236 2.29217 8.25624 2.29169 9.66669 2.29169L10.3333 2.29169C11.7438 2.29169 12.764 2.29217 13.5664 2.35773C14.3616 2.42269 14.8876 2.54842 15.3196 2.76853C16.1428 3.18798 16.8121 3.85727 17.2315 4.68048C17.4516 5.11246 17.5773 5.63848 17.6423 6.43359C17.7079 7.236 17.7084 8.25624 17.7084 9.66669V10.3333C17.7084 11.7438 17.7079 12.764 17.6423 13.5664C17.5773 14.3616 17.4516 14.8876 17.2315 15.3196C16.8121 16.1428 16.1428 16.8121 15.3196 17.2315C14.8876 17.4516 14.3616 17.5773 13.5665 17.6423C12.764 17.7079 11.7438 17.7084 10.3334 17.7084H9.66669C8.25625 17.7084 7.236 17.7079 6.43359 17.6423C5.63848 17.5773 5.11247 17.4516 4.68048 17.2315C3.85727 16.8121 3.18798 16.1428 2.76853 15.3196C2.54843 14.8876 2.4227 14.3616 2.35773 13.5664C2.29217 12.764 2.29169 11.7438 2.29169 10.3334L2.29169 9.66669C2.29169 8.25625 2.29217 7.236 2.35773 6.43359C2.42269 5.63848 2.54842 5.11247 2.76853 4.68048C3.18798 3.85727 3.85727 3.18798 4.68048 2.76853ZM6.45835 6.66669C6.45835 6.32151 6.17853 6.04169 5.83335 6.04169C5.48817 6.04169 5.20835 6.32151 5.20835 6.66669L5.20835 13.3334C5.20835 13.6785 5.48818 13.9584 5.83335 13.9584C6.17853 13.9584 6.45835 13.6785 6.45835 13.3334L6.45835 6.66669ZM10 8.54169C10.3452 8.54169 10.625 8.82151 10.625 9.16669L10.625 13.3334C10.625 13.6785 10.3452 13.9584 10 13.9584C9.65484 13.9584 9.37502 13.6785 9.37502 13.3334L9.37502 9.16669C9.37502 8.82151 9.65484 8.54169 10 8.54169ZM14.7917 7.50002C14.7917 7.15484 14.5119 6.87502 14.1667 6.87502C13.8215 6.87502 13.5417 7.15484 13.5417 7.50002L13.5417 13.3334C13.5417 13.6785 13.8215 13.9584 14.1667 13.9584C14.5119 13.9584 14.7917 13.6785 14.7917 13.3334L14.7917 7.50002Z" fill="#ffffff"/>
</svg>
