<svg width="24" height="24" viewBox="0 0 24 24" fill="none" xmlns="http://www.w3.org/2000/svg">
<path opacity="0.12" d="M9.4 22H14.6C16.8402 22 17.9603 22 18.816 21.564C19.5686 21.1805 20.1805 20.5686 20.564 19.816C21 18.9603 21 17.8402 21 15.6V12H3V15.6C3 17.8402 3 18.9603 3.43597 19.816C3.81947 20.5686 4.43139 21.1805 5.18404 21.564C6.03969 22 7.15979 22 9.4 22Z" fill="#AB69CC"/>
<path fill-rule="evenodd" clip-rule="evenodd" d="M7.30888 5.25H5L4.97475 5.25C4.53029 5.24999 4.15925 5.24999 3.85464 5.27077C3.53754 5.29241 3.23801 5.33905 2.94762 5.45933C2.27379 5.73844 1.73844 6.27379 1.45933 6.94762C1.33905 7.23801 1.29241 7.53754 1.27077 7.85464C1.24999 8.15925 1.24999 8.53028 1.25 8.97474V8.97475V9V9.02525V9.02526C1.24999 9.46972 1.24999 9.84075 1.27077 10.1454C1.29241 10.4625 1.33905 10.762 1.45933 11.0524C1.63307 11.4718 1.90609 11.8376 2.25 12.1213V15.6L2.25 15.633C2.24999 16.7251 2.24999 17.5906 2.30699 18.2883C2.36527 19.0017 2.48688 19.6053 2.76772 20.1565C3.22312 21.0502 3.94978 21.7769 4.84355 22.2323C5.39472 22.5131 5.99835 22.6347 6.71173 22.693C7.40934 22.75 8.27481 22.75 9.36691 22.75H9.36698H9.4H14.6H14.633H14.6331C15.7252 22.75 16.5907 22.75 17.2883 22.693C18.0017 22.6347 18.6053 22.5131 19.1565 22.2323C20.0502 21.7769 20.7769 21.0502 21.2323 20.1565C21.5131 19.6053 21.6347 19.0017 21.693 18.2883C21.75 17.5906 21.75 16.7252 21.75 15.633V15.6V12.1213C22.0939 11.8376 22.3669 11.4718 22.5407 11.0524C22.661 10.762 22.7076 10.4625 22.7292 10.1454C22.75 9.84075 22.75 9.46972 22.75 9.02526V9V8.97474C22.75 8.53028 22.75 8.15925 22.7292 7.85464C22.7076 7.53754 22.661 7.23801 22.5407 6.94762C22.2616 6.27379 21.7262 5.73844 21.0524 5.45933C20.762 5.33905 20.4625 5.29241 20.1454 5.27077C19.8408 5.24999 19.4697 5.24999 19.0253 5.25L19 5.25H16.6911C16.3315 2.98301 14.3682 1.25 12 1.25C9.63185 1.25 7.66846 2.98301 7.30888 5.25ZM8.83697 5.25H15.163C14.8245 3.81665 13.5368 2.75 12 2.75C10.4632 2.75 9.17555 3.81665 8.83697 5.25ZM20.25 12.7211C20.2153 12.7241 20.1805 12.7268 20.1454 12.7292C19.8408 12.75 19.4697 12.75 19.0253 12.75H19H16.75V13.5C16.75 13.9142 16.4142 14.25 16 14.25C15.5858 14.25 15.25 13.9142 15.25 13.5V12.75H8.75V13.5C8.75 13.9142 8.41421 14.25 8 14.25C7.58579 14.25 7.25 13.9142 7.25 13.5V12.75H5H4.97474C4.53028 12.75 4.15925 12.75 3.85464 12.7292C3.81955 12.7268 3.78467 12.7241 3.75 12.7211V15.6C3.75 16.7325 3.75058 17.5367 3.80201 18.1661C3.85271 18.7867 3.94909 19.171 4.10423 19.4755C4.41582 20.087 4.913 20.5842 5.52453 20.8958C5.829 21.0509 6.21325 21.1473 6.83388 21.198C7.46327 21.2494 8.26752 21.25 9.4 21.25H14.6C15.7325 21.25 16.5367 21.2494 17.1661 21.198C17.7867 21.1473 18.171 21.0509 18.4755 20.8958C19.087 20.5842 19.5842 20.087 19.8958 19.4755C20.0509 19.171 20.1473 18.7867 20.198 18.1661C20.2494 17.5367 20.25 16.7325 20.25 15.6V12.7211ZM8.75 11.25V10.5C8.75 10.0858 8.41421 9.75 8 9.75C7.58579 9.75 7.25 10.0858 7.25 10.5V11.25H5C4.5238 11.25 4.20421 11.2496 3.95674 11.2327C3.71602 11.2163 3.5988 11.1868 3.52165 11.1549C3.21536 11.028 2.97202 10.7846 2.84515 10.4784C2.81319 10.4012 2.78372 10.284 2.76729 10.0433C2.75041 9.79579 2.75 9.4762 2.75 9C2.75 8.5238 2.75041 8.20421 2.76729 7.95674C2.78372 7.71601 2.81319 7.5988 2.84515 7.52165C2.97202 7.21536 3.21536 6.97202 3.52165 6.84515C3.5988 6.81319 3.71602 6.78372 3.95674 6.76729C4.20421 6.75041 4.5238 6.75 5 6.75H19C19.4762 6.75 19.7958 6.75041 20.0433 6.76729C20.284 6.78372 20.4012 6.81319 20.4784 6.84515C20.7846 6.97202 21.028 7.21536 21.1549 7.52165C21.1868 7.5988 21.2163 7.71601 21.2327 7.95674C21.2496 8.20421 21.25 8.5238 21.25 9C21.25 9.4762 21.2496 9.79579 21.2327 10.0433C21.2163 10.284 21.1868 10.4012 21.1549 10.4784C21.028 10.7846 20.7846 11.028 20.4784 11.1549C20.4012 11.1868 20.284 11.2163 20.0433 11.2327C19.7958 11.2496 19.4762 11.25 19 11.25H16.75V10.5C16.75 10.0858 16.4142 9.75 16 9.75C15.5858 9.75 15.25 10.0858 15.25 10.5V11.25H8.75Z" fill="#AB69CC"/>
</svg>
