<svg width="24" height="24" viewBox="0 0 24 24" fill="none" xmlns="http://www.w3.org/2000/svg">
<path opacity="0.12" d="M12 22C17.5228 22 22 17.5228 22 12C22 6.47715 17.5228 2 12 2C6.47715 2 2 6.47715 2 12C2 17.5228 6.47715 22 12 22Z" fill="#AB69CC"/>
<path fill-rule="evenodd" clip-rule="evenodd" d="M12 2.75C6.89137 2.75 2.75 6.89137 2.75 12C2.75 17.1086 6.89137 21.25 12 21.25C17.1086 21.25 21.25 17.1086 21.25 12C21.25 6.89137 17.1086 2.75 12 2.75ZM1.25 12C1.25 6.06294 6.06294 1.25 12 1.25C17.9371 1.25 22.75 6.06294 22.75 12C22.75 17.9371 17.9371 22.75 12 22.75C6.06294 22.75 1.25 17.9371 1.25 12ZM8.24988 9.74342C8.24988 8.36634 9.36622 7.25 10.7433 7.25H11.2499V6.5C11.2499 6.08579 11.5857 5.75 11.9999 5.75C12.4141 5.75 12.7499 6.08579 12.7499 6.5V7.25H12.9999C14.5187 7.25 15.7499 8.48122 15.7499 10C15.7499 10.4142 15.4141 10.75 14.9999 10.75C14.5857 10.75 14.2499 10.4142 14.2499 10C14.2499 9.30964 13.6902 8.75 12.9999 8.75H12.7499V11.4594L14.0449 11.8911C15.0631 12.2305 15.7499 13.1833 15.7499 14.2566C15.7499 15.6337 14.6335 16.75 13.2565 16.75H12.7499V17.5C12.7499 17.9142 12.4141 18.25 11.9999 18.25C11.5857 18.25 11.2499 17.9142 11.2499 17.5V16.75H10.9999C9.48109 16.75 8.24988 15.5188 8.24988 14C8.24988 13.5858 8.58566 13.25 8.99988 13.25C9.41409 13.25 9.74988 13.5858 9.74988 14C9.74988 14.6904 10.3095 15.25 10.9999 15.25H11.2499V12.5406L9.95481 12.1089C8.93664 11.7695 8.24988 10.8167 8.24988 9.74342ZM11.2499 10.9594V8.75H10.7433C10.1946 8.75 9.74988 9.19477 9.74988 9.74342C9.74988 10.171 10.0235 10.5506 10.4291 10.6859L11.2499 10.9594ZM12.7499 13.0406V15.25H13.2565C13.8051 15.25 14.2499 14.8052 14.2499 14.2566C14.2499 13.829 13.9763 13.4494 13.5706 13.3141L12.7499 13.0406Z" fill="#AB69CC"/>
</svg>
