<svg width="18" height="18" viewBox="0 0 18 18" fill="none" xmlns="http://www.w3.org/2000/svg">
<path fill-rule="evenodd" clip-rule="evenodd" d="M6.91668 0.875016L6.81561 0.875008C5.75 0.874881 5.10043 0.874804 4.54809 1.00741C2.79602 1.42804 1.42804 2.79602 1.00741 4.54809C0.874804 5.10043 0.874881 5.75 0.875008 6.81561L0.875016 6.91668V9.83335L0.875015 9.86131C0.875012 11.0044 0.875009 11.9006 0.933859 12.6209C0.993784 13.3544 1.11783 13.9603 1.39728 14.5087C1.85667 15.4103 2.5897 16.1434 3.49131 16.6028C4.03975 16.8822 4.64568 17.0062 5.37913 17.0662C6.09942 17.125 6.99561 17.125 8.1387 17.125H8.13875H8.16668H11.0833L11.1844 17.125C12.25 17.1251 12.8996 17.1252 13.4519 16.9926C15.204 16.572 16.572 15.204 16.9926 13.4519C17.1252 12.8996 17.1251 12.25 17.125 11.1844L17.125 11.0833V10.6667C17.125 10.3215 16.8452 10.0417 16.5 10.0417C16.1548 10.0417 15.875 10.3215 15.875 10.6667V11.0833C15.875 12.2816 15.8707 12.7707 15.7772 13.1601C15.4663 14.4551 14.4551 15.4663 13.1601 15.7772C12.7707 15.8707 12.2816 15.875 11.0833 15.875H8.16668C6.98959 15.875 6.14436 15.8745 5.48092 15.8203C4.82477 15.7667 4.40166 15.6637 4.0588 15.489C3.39239 15.1494 2.85059 14.6076 2.51103 13.9412C2.33634 13.5984 2.23332 13.1753 2.17971 12.5191C2.1255 11.8557 2.12502 11.0104 2.12502 9.83335V6.91668C2.12502 5.71848 2.12937 5.22937 2.22287 4.8399C2.53378 3.54489 3.54489 2.53378 4.8399 2.22287C5.22937 2.12937 5.71848 2.12502 6.91668 2.12502H7.33335C7.67853 2.12502 7.95835 1.84519 7.95835 1.50002C7.95835 1.15484 7.67853 0.875016 7.33335 0.875016H6.91668ZM10.875 1.50002C10.875 1.84519 11.1548 2.12502 11.5 2.12502H14.9911L8.55807 8.55807C8.314 8.80215 8.314 9.19788 8.55807 9.44196C8.80215 9.68603 9.19788 9.68603 9.44196 9.44196L15.875 3.0089V6.50002C15.875 6.84519 16.1548 7.12502 16.5 7.12502C16.8452 7.12502 17.125 6.84519 17.125 6.50002V1.50002C17.125 1.15484 16.8452 0.875016 16.5 0.875016H11.5C11.1548 0.875016 10.875 1.15484 10.875 1.50002Z" fill="white"/>
</svg>
