<svg width="24" height="24" viewBox="0 0 24 24" fill="none" xmlns="http://www.w3.org/2000/svg">
<path d="M12.0001 21.9993C6.47712 21.9993 2.00012 17.5223 2.00012 11.9993C2.00012 6.47627 6.47712 1.99927 12.0001 1.99927C17.5231 1.99927 22.0001 6.47627 22.0001 11.9993C22.0001 17.5223 17.5231 21.9993 12.0001 21.9993ZM12.0001 19.9993C14.1219 19.9993 16.1567 19.1564 17.657 17.6561C19.1573 16.1558 20.0001 14.121 20.0001 11.9993C20.0001 9.87754 19.1573 7.8427 17.657 6.34241C16.1567 4.84212 14.1219 3.99927 12.0001 3.99927C9.87839 3.99927 7.84356 4.84212 6.34327 6.34241C4.84298 7.8427 4.00012 9.87754 4.00012 11.9993C4.00012 14.121 4.84298 16.1558 6.34327 17.6561C7.84356 19.1564 9.87839 19.9993 12.0001 19.9993ZM9.00012 7.99927H15.0001L17.5001 11.4993L12.0001 16.9993L6.50012 11.4993L9.00012 7.99927ZM10.0301 9.99927L9.11012 11.2893L12.0001 14.1793L14.8901 11.2893L13.9701 9.99927H10.0301Z" fill="#211E31"/>
</svg>
