<svg width="20" height="20" viewBox="0 0 20 20" fill="none" xmlns="http://www.w3.org/2000/svg">
<path opacity="0.12" fill-rule="evenodd" clip-rule="evenodd" d="M9.99996 18.3334C14.6023 18.3334 18.3333 14.6024 18.3333 10C18.3333 5.39765 14.6023 1.66669 9.99996 1.66669C5.39759 1.66669 1.66663 5.39765 1.66663 10C1.66663 14.6024 5.39759 18.3334 9.99996 18.3334ZM8.33317 7.9167C8.33317 8.60705 7.77353 9.1667 7.08317 9.1667C6.39281 9.1667 5.83317 8.60705 5.83317 7.9167C5.83317 7.22634 6.39281 6.6667 7.08317 6.6667C7.77353 6.6667 8.33317 7.22634 8.33317 7.9167ZM12.9165 13.3334C13.6069 13.3334 14.1665 12.7737 14.1665 12.0834C14.1665 11.393 13.6069 10.8334 12.9165 10.8334C12.2261 10.8334 11.6665 11.393 11.6665 12.0834C11.6665 12.7737 12.2261 13.3334 12.9165 13.3334Z" fill="white"/>
<path fill-rule="evenodd" clip-rule="evenodd" d="M2.29163 10C2.29163 5.74283 5.74276 2.29169 9.99996 2.29169C14.2572 2.29169 17.7083 5.74283 17.7083 10C17.7083 14.2572 14.2572 17.7084 9.99996 17.7084C5.74276 17.7084 2.29163 14.2572 2.29163 10ZM9.99996 1.04169C5.05241 1.04169 1.04163 5.05247 1.04163 10C1.04163 14.9476 5.05241 18.9584 9.99996 18.9584C14.9475 18.9584 18.9583 14.9476 18.9583 10C18.9583 5.05247 14.9475 1.04169 9.99996 1.04169ZM13.0358 6.15491C13.2134 5.85893 13.1174 5.47501 12.8214 5.29742C12.5254 5.11983 12.1415 5.21581 11.9639 5.51179L6.96392 13.8451C6.78633 14.1411 6.88231 14.525 7.1783 14.7026C7.47429 14.8802 7.8582 14.7842 8.03579 14.4882L13.0358 6.15491ZM7.08319 7.29169C6.73801 7.29169 6.45819 7.57151 6.45819 7.91669C6.45819 8.26187 6.73801 8.54169 7.08319 8.54169C7.42837 8.54169 7.70819 8.26187 7.70819 7.91669C7.70819 7.57151 7.42837 7.29169 7.08319 7.29169ZM5.20819 7.91669C5.20819 6.88115 6.04766 6.04169 7.08319 6.04169C8.11872 6.04169 8.95819 6.88115 8.95819 7.91669C8.95819 8.95222 8.11872 9.79169 7.08319 9.79169C6.04766 9.79169 5.20819 8.95222 5.20819 7.91669ZM12.2915 12.0834C12.2915 11.7382 12.5713 11.4584 12.9165 11.4584C13.2617 11.4584 13.5415 11.7382 13.5415 12.0834C13.5415 12.4285 13.2617 12.7084 12.9165 12.7084C12.5713 12.7084 12.2915 12.4285 12.2915 12.0834ZM12.9165 10.2084C11.881 10.2084 11.0415 11.0478 11.0415 12.0834C11.0415 13.1189 11.881 13.9584 12.9165 13.9584C13.9521 13.9584 14.7915 13.1189 14.7915 12.0834C14.7915 11.0478 13.9521 10.2084 12.9165 10.2084Z" fill="white"/>
</svg>
