<svg width="20" height="20" viewBox="0 0 20 20" fill="none" xmlns="http://www.w3.org/2000/svg">
<path opacity="0.12" fill-rule="evenodd" clip-rule="evenodd" d="M1.66669 9.66669C1.66669 6.86643 1.66669 5.46629 2.21165 4.39673C2.69102 3.45592 3.45592 2.69102 4.39673 2.21165C5.46629 1.66669 6.86642 1.66669 9.66669 1.66669H10.3334C13.1336 1.66669 14.5337 1.66669 15.6033 2.21165C16.5441 2.69102 17.309 3.45592 17.7884 4.39673C18.3334 5.46629 18.3334 6.86642 18.3334 9.66669V10.3334C18.3334 13.1336 18.3334 14.5337 17.7884 15.6033C17.309 16.5441 16.5441 17.309 15.6033 17.7884C14.5337 18.3334 13.1336 18.3334 10.3334 18.3334H9.66669C6.86643 18.3334 5.46629 18.3334 4.39673 17.7884C3.45592 17.309 2.69102 16.5441 2.21165 15.6033C1.66669 14.5337 1.66669 13.1336 1.66669 10.3334V9.66669ZM11.1111 10.8333H8.88889C7.66159 10.8333 6.66667 11.8282 6.66667 13.0555C6.66667 13.6691 7.16413 14.1666 7.77778 14.1666H12.2222C12.8359 14.1666 13.3333 13.6691 13.3333 13.0555C13.3333 11.8282 12.3384 10.8333 11.1111 10.8333ZM10 8.33327C10.9205 8.33327 11.6667 7.58708 11.6667 6.66661C11.6667 5.74613 10.9205 4.99994 10 4.99994C9.07953 4.99994 8.33333 5.74613 8.33333 6.66661C8.33333 7.58708 9.07953 8.33327 10 8.33327Z" fill="white"/>
<path fill-rule="evenodd" clip-rule="evenodd" d="M9.6384 1.04169H9.66669H10.3334H10.3616C11.7378 1.04168 12.809 1.04168 13.6682 1.11188C14.5406 1.18316 15.2495 1.32992 15.887 1.65478C16.9455 2.19406 17.806 3.05458 18.3453 4.11299C18.6701 4.75056 18.8169 5.45939 18.8882 6.3318C18.9584 7.19104 18.9584 8.2622 18.9584 9.63838V9.66669V10.3334V10.3617C18.9584 11.7378 18.9584 12.809 18.8882 13.6682C18.8169 14.5406 18.6701 15.2495 18.3453 15.887C17.806 16.9455 16.9455 17.806 15.887 18.3453C15.2495 18.6701 14.5406 18.8169 13.6682 18.8882C12.809 18.9584 11.7378 18.9584 10.3617 18.9584H10.3334H9.66669H9.63839C8.2622 18.9584 7.19104 18.9584 6.3318 18.8882C5.45939 18.8169 4.75056 18.6701 4.11299 18.3453C3.05458 17.806 2.19406 16.9455 1.65478 15.887C1.32992 15.2495 1.18316 14.5406 1.11188 13.6682C1.04168 12.809 1.04168 11.7378 1.04169 10.3616V10.3334V9.66669V9.63841C1.04168 8.26221 1.04168 7.19104 1.11188 6.3318C1.18316 5.45939 1.32992 4.75056 1.65478 4.11299C2.19406 3.05458 3.05458 2.19406 4.11299 1.65478C4.75056 1.32992 5.45939 1.18316 6.3318 1.11188C7.19104 1.04168 8.2622 1.04168 9.6384 1.04169ZM6.43359 2.35773C5.63848 2.4227 5.11247 2.54843 4.68048 2.76853C3.85727 3.18798 3.18798 3.85727 2.76853 4.68048C2.54843 5.11247 2.4227 5.63848 2.35773 6.43359C2.29217 7.236 2.29169 8.25624 2.29169 9.66669V10.3334C2.29169 11.7438 2.29217 12.764 2.35773 13.5664C2.4227 14.3616 2.54843 14.8876 2.76853 15.3196C3.18798 16.1428 3.85727 16.8121 4.68048 17.2315C5.11247 17.4516 5.63848 17.5773 6.43359 17.6423C7.236 17.7079 8.25624 17.7084 9.66669 17.7084H10.3334C11.7438 17.7084 12.764 17.7079 13.5664 17.6423C14.3616 17.5773 14.8876 17.4516 15.3196 17.2315C16.1428 16.8121 16.8121 16.1428 17.2315 15.3196C17.4516 14.8876 17.5773 14.3616 17.6423 13.5664C17.7079 12.764 17.7084 11.7438 17.7084 10.3334V9.66669C17.7084 8.25624 17.7079 7.236 17.6423 6.43359C17.5773 5.63848 17.4516 5.11247 17.2315 4.68048C16.8121 3.85727 16.1428 3.18798 15.3196 2.76853C14.8876 2.54843 14.3616 2.4227 13.5664 2.35773C12.764 2.29217 11.7438 2.29169 10.3334 2.29169H9.66669C8.25624 2.29169 7.236 2.29217 6.43359 2.35773ZM8.88891 11.4584C8.00679 11.4584 7.29169 12.1735 7.29169 13.0556C7.29169 13.324 7.50933 13.5417 7.7778 13.5417H12.2222C12.4907 13.5417 12.7084 13.324 12.7084 13.0556C12.7084 12.1735 11.9933 11.4584 11.1111 11.4584H8.88891ZM6.04169 13.0556C6.04169 11.4831 7.31643 10.2084 8.88891 10.2084H11.1111C12.6836 10.2084 13.9584 11.4831 13.9584 13.0556C13.9584 14.0144 13.1811 14.7917 12.2222 14.7917H7.7778C6.81897 14.7917 6.04169 14.0144 6.04169 13.0556ZM8.95835 6.66669C8.95835 6.09139 9.42472 5.62502 10 5.62502C10.5753 5.62502 11.0417 6.09139 11.0417 6.66669C11.0417 7.24198 10.5753 7.70835 10 7.70835C9.42472 7.70835 8.95835 7.24198 8.95835 6.66669ZM10 4.37502C8.73437 4.37502 7.70835 5.40103 7.70835 6.66669C7.70835 7.93234 8.73437 8.95835 10 8.95835C11.2657 8.95835 12.2917 7.93234 12.2917 6.66669C12.2917 5.40103 11.2657 4.37502 10 4.37502Z" fill="white"/>
</svg>
